<svg width="91" height="30" viewBox="0 0 91 30" fill="none" xmlns="http://www.w3.org/2000/svg">
<path d="M15.68 16.72L8.84 -1.90735e-06H0.96L15.68 29.76L30.44 -1.90735e-06H22.52L15.68 16.72ZM33.3741 -1.90735e-06V28H40.2541V-1.90735e-06H33.3741ZM43.3866 6.04H51.0666V28H57.8266V6.04H65.5466V-1.90735e-06H43.3866V6.04ZM68.4084 -1.90735e-06V18.8C68.4084 20.56 68.6884 22.0933 69.2484 23.4C69.8351 24.7067 70.6351 25.7867 71.6484 26.64C72.6884 27.4667 73.8884 28.0933 75.2484 28.52C76.6084 28.9467 78.0751 29.16 79.6484 29.16C81.2218 29.16 82.6884 28.9467 84.0484 28.52C85.4351 28.0933 86.6351 27.4667 87.6484 26.64C88.6884 25.7867 89.4884 24.7067 90.0484 23.4C90.6351 22.0933 90.9284 20.56 90.9284 18.8V-1.90735e-06H84.1684V18.32C84.1684 19.7333 83.7951 20.88 83.0484 21.76C82.3018 22.64 81.1684 23.08 79.6484 23.08C78.1551 23.08 77.0351 22.64 76.2884 21.76C75.5418 20.88 75.1684 19.7333 75.1684 18.32V-1.90735e-06H68.4084Z" fill="url(#paint0_linear_15_2)"/>
<defs>
<linearGradient id="paint0_linear_15_2" x1="94" y1="-0.999997" x2="0.999996" y2="28" gradientUnits="userSpaceOnUse">
<stop stop-color="#E2525C"/>
<stop offset="1" stop-color="#1F8FE0"/>
</linearGradient>
</defs>
</svg>
